<?xml version="1.0" standalone="no"?>
<!DOCTYPE svg PUBLIC "-//W3C//DTD SVG 20010904//EN"
 "http://www.w3.org/TR/2001/REC-SVG-20010904/DTD/svg10.dtd">
<svg version="1.0" xmlns="http://www.w3.org/2000/svg"
 width="2860.000000pt" height="418.000000pt" viewBox="0 0 2860.000000 418.000000"
 preserveAspectRatio="xMidYMid meet">

<g transform="translate(0.000000,418.000000) scale(0.100000,-0.100000)"
fill="#000000" stroke="none">
<path d="M1335 3684 c-16 -2 -73 -11 -125 -20 -483 -82 -880 -429 -1019 -889
-56 -187 -66 -253 -66 -460 0 -218 19 -338 81 -517 159 -460 549 -749 1092
-808 159 -18 436 -8 567 20 217 46 391 123 550 242 l90 68 3 -135 3 -135 339
0 339 0 3 528 c3 526 3 527 26 577 95 207 382 235 470 47 l27 -57 3 -547 3
-548 340 0 339 0 0 303 1 302 24 -73 c32 -94 67 -162 120 -237 266 -375 880
-451 1213 -151 45 41 44 43 57 -59 12 -94 -23 -85 331 -85 l314 0 0 645 0 645
129 0 130 0 3 -407 c4 -388 5 -412 27 -483 66 -221 194 -351 406 -412 70 -20
102 -23 255 -23 131 0 196 5 260 18 82 18 236 71 244 85 2 4 -29 117 -70 252
-40 135 -73 246 -73 247 -1 1 -27 -10 -58 -24 -45 -21 -74 -27 -133 -27 -88
-1 -132 19 -165 74 -19 33 -20 54 -23 368 l-3 332 205 0 206 0 0 260 0 260
-200 0 -200 0 0 265 c0 205 -3 265 -12 265 -7 0 -157 -16 -332 -35 -176 -19
-323 -35 -328 -35 -4 0 -8 -103 -8 -229 l0 -230 -452 2 -453 2 -15 -92 -15
-91 -37 43 c-54 62 -148 121 -241 151 -110 36 -304 45 -427 20 -172 -35 -305
-103 -426 -219 -117 -110 -214 -275 -245 -415 -12 -53 -29 -54 -29 -1 0 51
-42 186 -85 275 -111 230 -315 360 -585 371 -199 9 -321 -32 -442 -146 l-68
-63 0 466 0 466 -345 0 -345 0 -2 -165 -3 -165 -75 63 c-185 154 -366 244
-600 299 -65 15 -130 20 -275 23 -104 2 -203 1 -220 -1z m1175 -1335 c0 -490
-4 -889 -8 -887 -5 2 -71 73 -147 158 -76 85 -156 174 -177 198 l-38 42 -67
-55 c-180 -148 -433 -224 -653 -196 -118 15 -196 43 -286 104 -134 90 -222
223 -265 402 -18 78 -20 110 -16 235 6 165 20 227 77 345 84 174 227 293 412
342 96 26 280 23 386 -5 121 -33 223 -87 315 -171 l38 -35 207 207 c114 114
210 207 214 207 5 0 8 -401 8 -891z m2986 0 c177 -32 284 -178 284 -387 0
-166 -80 -300 -219 -366 -59 -28 -75 -31 -156 -31 -75 1 -99 5 -147 27 -79 37
-140 96 -174 171 -27 59 -29 69 -29 197 0 125 2 139 26 191 75 160 227 233
415 198z"/>
<path d="M12119 3655 c-26 -7 -53 -16 -60 -21 -8 -5 -198 -11 -423 -14 l-409
-5 -154 -440 c-154 -440 -206 -614 -263 -885 -17 -79 -32 -146 -34 -147 -2 -2
-46 128 -99 289 -52 161 -161 494 -242 741 l-146 447 -254 0 -254 0 -25 -82
c-146 -476 -445 -1400 -450 -1388 -2 8 -23 106 -45 217 -50 247 -51 252 -253
805 l-163 448 -398 0 c-337 0 -398 -2 -395 -14 2 -8 217 -586 478 -1285 l475
-1271 296 0 296 0 81 223 c44 122 142 396 218 609 76 213 142 384 145 380 3
-4 104 -272 224 -597 120 -324 220 -596 222 -602 4 -10 74 -13 303 -13 l298 0
59 163 c33 89 210 573 393 1075 184 501 336 912 339 912 4 0 15 -16 26 -36 70
-131 290 -199 467 -144 159 49 248 162 248 314 0 153 -89 267 -248 316 -73 23
-182 25 -253 5z"/>
<path d="M13980 2503 c0 -619 -2 -1124 -5 -1121 -3 2 -19 52 -36 109 -16 57
-32 109 -34 116 -3 9 -21 5 -62 -14 -45 -21 -73 -27 -133 -27 -88 -1 -132 19
-165 74 -19 33 -20 54 -23 368 l-3 332 205 0 206 0 0 260 0 260 -200 0 -200 0
0 265 c0 205 -3 265 -12 265 -7 0 -157 -16 -332 -35 -176 -19 -323 -35 -328
-35 -4 0 -8 -103 -8 -230 l0 -230 -145 0 c-90 0 -145 -4 -145 -10 0 -6 -117
-10 -330 -10 l-330 0 0 -895 0 -895 340 0 340 0 0 645 0 645 134 0 135 0 3
-407 c4 -388 5 -412 27 -483 66 -219 195 -351 401 -410 153 -44 425 -37 608
16 97 28 92 28 92 9 0 -13 44 -15 340 -15 l339 0 3 528 c3 526 3 527 26 577
95 207 382 235 470 47 l27 -57 3 -547 3 -548 340 0 339 0 0 498 c0 689 -12
795 -105 988 -111 230 -315 360 -585 371 -199 9 -321 -32 -442 -146 l-68 -63
0 466 0 466 -345 0 -345 0 0 -1127z"/>
<path d="M17251 3603 c-5 -10 -260 -576 -566 -1258 -307 -682 -564 -1252 -571
-1268 l-15 -27 392 2 391 3 82 205 82 205 576 3 575 2 84 -210 84 -210 652 0
652 0 3 538 3 537 24 52 c27 62 94 126 159 156 65 29 181 29 237 0 49 -26 75
-54 106 -113 l24 -45 3 -562 3 -563 339 0 340 0 0 584 c0 699 -4 738 -98 936
-48 101 -168 223 -262 268 -116 55 -178 67 -350 67 -132 0 -167 -3 -235 -23
-107 -31 -206 -85 -277 -150 -32 -30 -58 -52 -58 -50 0 2 -5 31 -10 64 -6 32
-13 74 -16 92 l-5 32 -299 0 -300 0 -2 -737 -3 -736 -497 1109 -497 1109 -370
3 c-345 2 -371 1 -380 -15z m543 -1133 l154 -385 -321 -3 c-176 -1 -322 0
-324 2 -2 2 69 185 158 406 123 305 165 398 171 384 5 -10 78 -192 162 -404z"/>
<path d="M23455 2895 c-325 -57 -554 -202 -691 -435 -24 -41 -44 -72 -44 -69
0 3 45 108 100 234 55 125 100 232 100 236 0 5 -157 8 -362 7 l-362 -3 -83
-210 c-46 -115 -131 -348 -190 -517 -59 -170 -110 -308 -113 -308 -3 0 -43
120 -89 268 -66 209 -209 630 -256 755 -7 16 -33 17 -366 17 -197 0 -359 -2
-359 -4 0 -2 162 -392 359 -866 l359 -862 -183 -421 -183 -422 351 -3 c193 -1
354 1 358 5 4 5 199 449 434 987 429 983 471 1078 459 1041 -45 -149 -48 -168
-48 -365 0 -223 13 -291 84 -434 126 -257 352 -421 680 -492 105 -23 410 -26
505 -6 341 75 569 232 699 482 48 92 70 158 91 272 12 67 13 37 14 -329 l1
-403 335 0 334 0 3 538 3 537 24 52 c27 62 94 126 159 156 65 29 181 29 237 0
49 -26 75 -54 106 -113 l24 -45 3 -562 3 -563 339 0 340 0 1 318 0 317 27 -75
c145 -400 533 -618 1065 -597 267 10 481 80 667 217 36 27 75 59 87 72 l21 23
-165 183 -165 183 -32 -21 c-53 -36 -168 -87 -236 -106 -44 -11 -103 -17 -185
-17 -137 -1 -211 19 -303 79 -51 34 -112 104 -112 131 0 11 108 13 634 13
l633 0 11 68 c32 195 24 338 -29 497 -104 313 -364 509 -750 566 -50 7 -136
10 -223 6 -453 -17 -801 -256 -922 -632 l-22 -70 -7 40 c-42 255 -98 379 -224
498 -75 70 -153 114 -261 143 -102 29 -349 27 -455 -4 -107 -31 -206 -85 -277
-150 -32 -30 -58 -52 -58 -50 0 2 -5 31 -10 64 -6 32 -13 74 -16 92 l-5 32
-299 0 -300 0 -1 -402 c-1 -372 -2 -397 -15 -328 -40 218 -119 368 -272 512
-119 112 -263 183 -462 230 -114 26 -400 33 -515 13z m4255 -486 c91 -14 176
-62 212 -118 15 -25 28 -55 28 -68 l0 -23 -325 0 c-218 0 -325 3 -325 10 0 21
42 93 68 117 38 36 98 65 162 79 70 16 100 16 180 3z m-3882 -84 c78 -36 143
-102 184 -189 31 -67 33 -77 33 -181 0 -103 -2 -114 -31 -176 -42 -88 -93
-142 -168 -179 -104 -51 -247 -50 -349 2 -90 46 -170 170 -188 292 -30 213 97
417 283 456 71 15 172 4 236 -25z"/>
</g>
</svg>
